<svg width="420" height="260" viewBox="0 0 420 260" fill="none" xmlns="http://www.w3.org/2000/svg">
  <defs>
    <linearGradient id="bg" x1="0" y1="0" x2="1" y2="1">
      <stop offset="0%" stop-color="#F1F5FF"/>
      <stop offset="100%" stop-color="#F8FAFC"/>
    </linearGradient>
  </defs>
  <rect x="0" y="0" width="420" height="260" rx="24" fill="url(#bg)"/>
  <rect x="36" y="46" width="230" height="140" rx="18" fill="white" stroke="#E2E8F0"/>
  <rect x="60" y="72" width="120" height="10" rx="5" fill="#00B6ED"/>
  <rect x="60" y="94" width="170" height="8" rx="4" fill="#CBD5E1"/>
  <rect x="60" y="112" width="150" height="8" rx="4" fill="#CBD5E1"/>
  <rect x="60" y="132" width="90" height="8" rx="4" fill="#CBD5E1"/>
  <path d="M290 70C320 56 352 62 374 84" stroke="#00B6ED" stroke-width="6" stroke-linecap="round"/>
  <path d="M290 100C320 86 350 92 370 110" stroke="#94A3B8" stroke-width="6" stroke-linecap="round"/>
  <path d="M290 130C320 118 350 124 368 140" stroke="#CBD5E1" stroke-width="6" stroke-linecap="round"/>
  <circle cx="308" cy="180" r="28" fill="white" stroke="#E2E8F0"/>
  <circle cx="308" cy="180" r="10" fill="#00B6ED"/>
</svg>
